PathFileType	4	(X/Y/Z)	/Users/itak/Documents/Research/Walk-IL/dataset/trc/00035_00004.trc
DataRate	CameraRate	NumFrames	NumMarkers	Units	OrigDataRate	OrigDataStartFrame	OrigNumFrames
100.000000	100.000000	4	53	mm	100.000000	725	829
Frame#	Time	RPSI			LPSI			L3			STRN			T10			C7			CLAV			RBAK			LBAK			LSHO			LUPA			LAEL			LAOL			LWTS			LWPS			LFRA			LIFD			LHPS			LHTS			RSHO			RUPA			RAEL			RAOL			RWTS			RWPS			RFRA			RIFD			RHTS			RHPS			RBHD			LFHD			RFHD			LBHD			LHIP			RHIP			RASI			LASI			LKNE			LTHI			LANK			LTIP			LTOE			LMT1			LMT5			LHEE			RKNE			RTHI			RANK			RTIP			RTOE			RMT1			RMT5			RHEE			
		X1	Y1	Z1	X2	Y2	Z2	X3	Y3	Z3	X4	Y4	Z4	X5	Y5	Z5	X6	Y6	Z6	X7	Y7	Z7	X8	Y8	Z8	X9	Y9	Z9	X10	Y10	Z10	X11	Y11	Z11	X12	Y12	Z12	X13	Y13	Z13	X14	Y14	Z14	X15	Y15	Z15	X16	Y16	Z16	X17	Y17	Z17	X18	Y18	Z18	X19	Y19	Z19	X20	Y20	Z20	X21	Y21	Z21	X22	Y22	Z22	X23	Y23	Z23	X24	Y24	Z24	X25	Y25	Z25	X26	Y26	Z26	X27	Y27	Z27	X28	Y28	Z28	X29	Y29	Z29	X30	Y30	Z30	X31	Y31	Z31	X32	Y32	Z32	X33	Y33	Z33	X34	Y34	Z34	X35	Y35	Z35	X36	Y36	Z36	X37	Y37	Z37	X38	Y38	Z38	X39	Y39	Z39	X40	Y40	Z40	X41	Y41	Z41	X42	Y42	Z42	X43	Y43	Z43	X44	Y44	Z44	X45	Y45	Z45	X46	Y46	Z46	X47	Y47	Z47	X48	Y48	Z48	X49	Y49	Z49	X50	Y50	Z50	X51	Y51	Z51	X52	Y52	Z52	X53	Y53	Z53	

726	7.25	478.5690307617188	1077.533325195312	980.6700439453125	502.8198547363281	1065.334716796875	1141.107666015625	498.9853210449219	1131.83349609375	1074.884765625	273.1372680664062	1318.841674804688	1091.92724609375	521.3462524414062	1275.310668945312	1093.275390625	465.4724426269531	1541.156372070312	1119.132934570312	312.4913635253906	1444.759643554688	1102.538696289062	526.6209716796875	1409.2421875	1035.586181640625	481.804443359375	1497.103271484375	1214.72802734375	378.0778503417969	1500.484130859375	1283.25634765625	405.4839782714844	1380.3828125	1367.17138671875	401.8656921386719	1168.058837890625	1409.351806640625	458.0864562988281	1145.087280273438	1322.586791992188	282.3158569335938	927.1901245117188	1364.102905273438	353.6833190917969	905.279296875	1413.096313476562	374.7890319824219	1055.556396484375	1423.554443359375	228.5641632080078	747.2055053710938	1356.390502929688	306.4162902832031	821.2972412109375	1415.728759765625	246.8697052001953	839.0359497070312	1381.462890625	399.2090148925781	1530.910522460938	941.640380859375	424.6241455078125	1469.175659179688	869.5520629882812	504.6688842773438	1217.150390625	828.3561401367188	489.8696594238281	1177.3046875	919.4146728515625	413.8924255371094	941.3924560546875	801.97265625	492.4151916503906	943.28515625	753.515380859375	507.43798828125	1143.13623046875	802.7055053710938	418.7610168457031	753.3418579101562	796.1165161132812	399.9769592285156	832.2262573242188	771.3742065429688	466.5617065429688	838.666748046875	735.4426879882812	388.3359985351562	1726.143432617188	1171.258544921875	233.3585662841797	1717.146606445312	1017.7509765625	216.0597076416016	1725.36669921875	1114.516357421875	407.7756958007812	1711.167358398438	1029.11767578125	421.3206176757812	957.2308349609375	1254.793212890625	351.1444702148438	963.0400390625	889.3445434570312	262.6077575683594	997.9389038085938	976.379638671875	297.4841918945312	1004.660278320312	1209.226440429688	285.3443603515625	530.6063232421875	1217.303833007812	346.7451477050781	657.0906982421875	1249.978759765625	343.8715209960938	37.65587615966797	1192.348022460938	342.5776062011719	284.6590576171875	1218.377563476562	117.7829055786133	41.17971801757812	1145.088623046875	176.3436737060547	50.31499862670898	1126.174072265625	221.8726501464844	35.98998641967773	1224.93408203125	408.0755004882812	45.85404968261719	1135.152954101562	265.1842956542969	527.1509399414062	931.2318115234375	306.4517517089844	800.1316528320312	895.333740234375	580.2241821289062	129.6858520507812	916.1878051757812	329.2906494140625	410.4665832519531	921.5978393554688	363.8522644042969	53.15563201904297	965.0493774414062	426.1371765136719	74.37081146240234	993.1982421875	439.1291809082031	76.80322265625	899.14697265625	633.8947143554688	146.5063934326172	960.692626953125	
727	7.26	475.285400390625	1078.142700195312	982.0108032226562	499.7212219238281	1065.729370117188	1142.372192382812	495.83837890625	1132.433959960938	1076.394775390625	269.7443542480469	1319.235961914062	1093.726806640625	517.9849853515625	1275.802124023438	1095.399536132812	461.9189453125	1541.544067382812	1121.784790039062	308.9793395996094	1445.18994140625	1104.564819335938	523.3552856445312	1409.799194335938	1038.163818359375	477.9229736328125	1497.343627929688	1217.413940429688	373.9407958984375	1500.712890625	1285.525024414062	400.3916320800781	1380.56396484375	1369.596923828125	394.9697265625	1168.2412109375	1411.905151367188	451.4806518554688	1144.75	1325.468383789062	272.8005676269531	928.93505859375	1365.6640625	343.5244140625	906.0480346679688	1415.075561523438	366.4943237304688	1056.07666015625	1425.855712890625	216.7147979736328	749.7142944335938	1357.3046875	295.0685119628906	822.6777954101562	1417.265991210938	236.0035400390625	841.2343139648438	1382.615600585938	396.1476745605469	1531.542114257812	944.0574340820312	421.7239685058594	1469.860595703125	871.9830932617188	501.8484802246094	1217.770751953125	831.0333862304688	486.9305419921875	1177.999145507812	922.113037109375	411.1634826660156	941.9566650390625	804.7388305664062	489.7645568847656	943.825927734375	756.4061889648438	504.66162109375	1143.735595703125	805.4559936523438	415.9385070800781	753.9202270507812	799.0986938476562	397.3171997070312	832.75	774.31201171875	464.012451171875	839.17529296875	738.4683837890625	384.8259582519531	1726.322265625	1174.001953125	230.6138153076172	1717.97705078125	1019.667053222656	212.8616180419922	1726.14990234375	1116.404907226562	404.9179077148438	1711.495361328125	1031.943359375	418.4820556640625	957.4886474609375	1255.961303710938	347.6971740722656	963.8362426757812	890.558837890625	259.3814392089844	998.6124267578125	977.8404541015625	294.4945983886719	1004.781005859375	1210.630126953125	284.4069213867188	530.3731689453125	1218.042358398438	345.0674743652344	657.08935546875	1250.7119140625	343.8818664550781	37.64561462402344	1192.369018554688	342.3218994140625	284.6571350097656	1218.653442382812	117.7823333740234	41.18746185302734	1145.1533203125	176.3666839599609	50.33886337280273	1126.233032226562	221.8802642822266	35.93876647949219	1225.008422851562	408.2019653320312	46.03977966308594	1135.265991210938	260.5744934082031	528.3922119140625	932.5453491210938	302.7202453613281	801.0640258789062	896.4556274414062	564.3984985351562	122.3502044677734	920.595458984375	322.4302368164062	410.6872253417969	923.6275634765625	345.2482299804688	53.17838287353516	968.0121459960938	408.0198669433594	72.27315521240234	996.5907592773438	421.7894287109375	74.33111572265625	902.6604614257812	618.3696899414062	137.5547027587891	965.3070068359375	
728	7.27	472.0754089355469	1078.690795898438	983.2985229492188	496.6934814453125	1066.085693359375	1143.595336914062	492.7576599121094	1132.973754882812	1077.848022460938	266.4279479980469	1319.587524414062	1095.456298828125	514.70849609375	1276.236083984375	1097.438842773438	458.4852294921875	1541.881958007812	1124.331176757812	305.5879516601562	1445.584106445312	1106.534057617188	520.1656494140625	1410.30029296875	1040.629150390625	474.1791381835938	1497.528076171875	1219.998901367188	369.9517822265625	1500.890625	1287.712524414062	395.4668273925781	1380.6923828125	1371.922973632812	388.2719116210938	1168.385009765625	1414.342895507812	445.0696716308594	1144.390625	1328.231567382812	263.5812072753906	930.6563110351562	1367.057983398438	333.6390380859375	906.808837890625	1416.867309570312	358.424560546875	1056.562744140625	1428.008422851562	205.3099822998047	752.1695556640625	1358.019653320312	284.0448913574219	824.0626220703125	1418.572265625	225.4701538085938	843.4050903320312	1383.562133789062	393.1556091308594	1532.125	946.3853149414062	418.8635559082031	1470.473999023438	874.3228759765625	498.9566040039062	1218.276489257812	833.6253051757812	483.9709777832031	1178.613159179688	924.7409057617188	408.2832641601562	942.4180297851562	807.5554809570312	486.9226379394531	944.2447509765625	759.277587890625	501.7832336425781	1144.2158203125	808.1403198242188	412.9566040039062	754.3933715820312	802.190185546875	394.4841003417969	833.1640014648438	777.35009765625	461.24169921875	839.5604858398438	741.5262451171875	381.45361328125	1726.456665039062	1176.671020507812	227.9598388671875	1718.778930664062	1021.538269042969	209.7881317138672	1726.903076171875	1118.267456054688	402.1723022460938	1711.775390625	1034.697143554688	415.6656799316406	957.7411499023438	1257.11279296875	344.36474609375	964.5616455078125	891.7361450195312	256.2132263183594	999.2288208007812	979.2205810546875	291.5884399414062	1004.888061523438	1211.9755859375	283.4521789550781	530.1375122070312	1218.7294921875	343.3657531738281	657.109130859375	1251.391479492188	343.8886413574219	37.64306640625	1192.380249023438	342.00146484375	284.6343078613281	1218.918701171875	117.7778244018555	41.19098281860352	1145.209594726562	176.3823394775391	50.35462951660156	1126.28076171875	221.8872680664062	35.8947868347168	1225.0703125	408.2490234375	46.17721176147461	1135.326049804688	256.1390380859375	529.51953125	933.8587036132812	299.1233825683594	801.9111328125	897.5136108398438	548.501708984375	115.2385025024414	924.7517700195312	315.6820678710938	410.8058776855469	925.667236328125	327.099853515625	53.45358657836914	971.7462768554688	390.3651733398438	70.52493286132812	1000.4443359375	404.5448608398438	71.9217529296875	906.6038818359375	602.8619995117188	128.9765167236328	969.4745483398438	
729	7.28	468.9349670410156	1079.184814453125	984.5349731445312	493.7350769042969	1066.406005859375	1144.781005859375	489.7425231933594	1133.4560546875	1079.24609375	263.1871032714844	1319.910278320312	1097.109741210938	511.5132446289062	1276.617431640625	1099.39697265625	455.1687927246094	1542.173706054688	1126.771484375	302.3158264160156	1445.948608398438	1108.435913085938	517.0531616210938	1410.74609375	1042.9853515625	470.5647583007812	1497.662231445312	1222.48193359375	366.1019592285156	1501.018676757812	1289.81396484375	390.7067260742188	1380.767333984375	1374.145385742188	381.7786865234375	1168.491577148438	1416.657958984375	438.8709411621094	1144.0068359375	1330.8681640625	254.63916015625	932.3521118164062	1368.275268554688	324.0358581542969	907.5647583007812	1418.479370117188	350.5922546386719	1057.016479492188	1430.010498046875	194.2639465332031	754.5872192382812	1358.51123046875	273.3665771484375	825.4617309570312	1419.671630859375	215.2846069335938	845.5543823242188	1384.325927734375	390.2428894042969	1532.665893554688	948.6187133789062	416.0592651367188	1471.020751953125	876.5696411132812	496.0054016113281	1218.67333984375	836.1298217773438	480.9836120605469	1179.154418945312	927.2916870117188	405.2494506835938	942.7848510742188	810.4112548828125	483.8912658691406	944.551025390625	762.12060546875	498.8153381347656	1144.5830078125	810.7552490234375	409.8228759765625	754.7678833007812	805.3796997070312	391.474609375	833.484130859375	780.4724731445312	458.244384765625	839.831787109375	744.6019287109375	378.214599609375	1726.551635742188	1179.265380859375	225.3910217285156	1719.556396484375	1023.374084472656	206.8411560058594	1727.619750976562	1120.109497070312	399.5367431640625	1712.018798828125	1037.374877929688	412.8772277832031	957.9833374023438	1258.24658203125	341.1369323730469	965.2260131835938	892.8805541992188	253.0951843261719	999.799072265625	980.5247802734375	288.7499084472656	1004.988830566406	1213.265869140625	282.479248046875	529.9014282226562	1219.363891601562	341.65869140625	657.1543579101562	1252.0166015625	343.8902282714844	37.64540100097656	1192.377075195312	341.6231689453125	284.5929260253906	1219.174438476562	117.7681655883789	41.18846893310547	1145.25537109375	176.3892974853516	50.36339569091797	1126.318481445312	221.8932037353516	35.85430908203125	1225.118896484375	408.1986389160156	46.24223709106445	1135.31396484375	251.8511962890625	530.5406494140625	935.1907958984375	295.6358032226562	802.6865844726562	898.5056762695312	532.665283203125	108.4530410766602	928.6448364257812	309.0390014648438	410.8374633789062	927.7196655273438	309.5252380371094	53.9686164855957	976.1914672851562	373.3018493652344	69.13018035888672	1004.71923828125	387.5027160644531	69.62841796875	910.9307250976562	587.5001831054688	120.8719635009766	973.2017211914062	
